# xmcd CD database file
#
# Track frame offsets:
#	150
#	17374
#	35038
#	53051
#	67877
#	82607
#
# Disc length: 1417 seconds
#
# Revision: 0
# Processed by: cddbd v1.5.2PL0 Copyright (c) Steve Scherf et al.
# Submitted via: CDex 1.70beta2
#
DISCID=38058706
DTITLE=Fabiano Pereira feat. mit4spiel5 - bossanova pop lounge jazz - Demo CD 2007
DYEAR=2007
DGENRE=Jazz
TTITLE0=Fingimento
TTITLE1=Museum der Jugend
TTITLE2=Mass aller Dinge
TTITLE3=Beleza da Chuva
TTITLE4=Filosofunko
TTITLE5=Planespotting
EXTD=YEAR: 2007
EXTT0=
EXTT1=
EXTT2=
EXTT3=
EXTT4=
EXTT5=
PLAYORDER=
